<svg xmlns="http://www.w3.org/2000/svg" xmlns:xlink="http://www.w3.org/1999/xlink" width="500" zoomAndPan="magnify" viewBox="0 0 375 374.999991" height="500" preserveAspectRatio="xMidYMid meet" version="1.0"><defs><g/></defs><rect x="-37.5" width="450" fill="#ffffff" y="-37.499999" height="449.999989" fill-opacity="1"/><rect x="-37.5" width="450" fill="#ffffff" y="-37.499999" height="449.999989" fill-opacity="1"/><rect x="-37.5" width="450" fill="#ffffff" y="-37.499999" height="449.999989" fill-opacity="1"/><g fill="#181818" fill-opacity="1"><g transform="translate(51.953124, 192.772766)"><g><path d="M 1.515625 -34.359375 L 10.59375 -34.359375 C 13.34375 -34.359375 15.300781 -33.472656 16.46875 -31.703125 C 17.644531 -29.929688 18.234375 -27.335938 18.234375 -23.921875 C 18.234375 -20.503906 17.710938 -17.925781 16.671875 -16.1875 C 15.640625 -14.457031 13.773438 -13.59375 11.078125 -13.59375 L 8.28125 -13.59375 L 8.28125 0 L 1.515625 0 Z M 8.6875 -19.796875 C 9.507812 -19.796875 10.113281 -19.945312 10.5 -20.25 C 10.882812 -20.5625 11.132812 -21.003906 11.25 -21.578125 C 11.375 -22.148438 11.4375 -22.972656 11.4375 -24.046875 C 11.4375 -25.484375 11.273438 -26.519531 10.953125 -27.15625 C 10.640625 -27.800781 10.003906 -28.125 9.046875 -28.125 L 8.28125 -28.125 L 8.28125 -19.796875 Z M 8.6875 -19.796875 "/></g></g></g><g fill="#181818" fill-opacity="1"><g transform="translate(71.831249, 192.772766)"><g><path d="M 1.515625 -34.359375 L 12.078125 -34.359375 C 13.753906 -34.359375 15.050781 -33.976562 15.96875 -33.21875 C 16.894531 -32.457031 17.515625 -31.390625 17.828125 -30.015625 C 18.148438 -28.640625 18.3125 -26.890625 18.3125 -24.765625 C 18.3125 -22.816406 18.054688 -21.296875 17.546875 -20.203125 C 17.046875 -19.109375 16.171875 -18.347656 14.921875 -17.921875 C 15.960938 -17.703125 16.710938 -17.179688 17.171875 -16.359375 C 17.640625 -15.535156 17.875 -14.414062 17.875 -13 L 17.796875 0 L 11.078125 0 L 11.078125 -13.4375 C 11.078125 -14.394531 10.890625 -15.007812 10.515625 -15.28125 C 10.140625 -15.550781 9.460938 -15.6875 8.484375 -15.6875 L 8.484375 0 L 1.515625 0 Z M 10.15625 -21.640625 C 11.113281 -21.640625 11.59375 -22.679688 11.59375 -24.765625 C 11.59375 -25.671875 11.550781 -26.347656 11.46875 -26.796875 C 11.394531 -27.253906 11.25 -27.566406 11.03125 -27.734375 C 10.820312 -27.910156 10.519531 -28 10.125 -28 L 8.515625 -28 L 8.515625 -21.640625 Z M 10.15625 -21.640625 "/></g></g></g><g fill="#181818" fill-opacity="1"><g transform="translate(91.909349, 192.772766)"><g><path d="M 9.71875 0.3125 C 6.945312 0.3125 4.835938 -0.53125 3.390625 -2.21875 C 1.953125 -3.914062 1.234375 -6.296875 1.234375 -9.359375 L 1.234375 -25.71875 C 1.234375 -28.675781 1.953125 -30.910156 3.390625 -32.421875 C 4.835938 -33.929688 6.945312 -34.6875 9.71875 -34.6875 C 12.488281 -34.6875 14.59375 -33.929688 16.03125 -32.421875 C 17.476562 -30.910156 18.203125 -28.675781 18.203125 -25.71875 L 18.203125 -9.359375 C 18.203125 -6.265625 17.476562 -3.878906 16.03125 -2.203125 C 14.59375 -0.523438 12.488281 0.3125 9.71875 0.3125 Z M 9.71875 -6 C 10.332031 -6 10.742188 -6.265625 10.953125 -6.796875 C 11.171875 -7.328125 11.28125 -8.078125 11.28125 -9.046875 L 11.28125 -25.84375 C 11.28125 -26.582031 11.179688 -27.1875 10.984375 -27.65625 C 10.785156 -28.125 10.378906 -28.359375 9.765625 -28.359375 C 8.617188 -28.359375 8.046875 -27.492188 8.046875 -25.765625 L 8.046875 -9 C 8.046875 -8.007812 8.164062 -7.257812 8.40625 -6.75 C 8.644531 -6.25 9.082031 -6 9.71875 -6 Z M 9.71875 -6 "/></g></g></g><g fill="#181818" fill-opacity="1"><g transform="translate(112.347414, 192.772766)"><g><path d="M 9.15625 0.3125 C 7.582031 0.3125 6.15625 0.0078125 4.875 -0.59375 C 3.59375 -1.207031 2.585938 -2.109375 1.859375 -3.296875 C 1.128906 -4.484375 0.765625 -5.914062 0.765625 -7.59375 L 0.765625 -16.203125 L 7.515625 -16.203125 L 7.515625 -8 C 7.515625 -7.382812 7.640625 -6.894531 7.890625 -6.53125 C 8.148438 -6.175781 8.546875 -6 9.078125 -6 C 9.585938 -6 9.96875 -6.164062 10.21875 -6.5 C 10.46875 -6.832031 10.59375 -7.304688 10.59375 -7.921875 L 10.59375 -34.359375 L 17.515625 -34.359375 L 17.515625 -8.59375 C 17.515625 -6.8125 17.160156 -5.242188 16.453125 -3.890625 C 15.753906 -2.546875 14.769531 -1.507812 13.5 -0.78125 C 12.226562 -0.0507812 10.78125 0.3125 9.15625 0.3125 Z M 9.15625 0.3125 "/></g></g></g><g fill="#181818" fill-opacity="1"><g transform="translate(131.985555, 192.772766)"><g><path d="M 1.515625 0 L 1.515625 -34.359375 L 15.28125 -34.359375 L 15.28125 -27.71875 L 8.515625 -27.71875 L 8.515625 -21.046875 L 15 -21.046875 L 15 -14.5625 L 8.515625 -14.5625 L 8.515625 -6.6875 L 15.71875 -6.6875 L 15.71875 0 Z M 1.515625 0 "/></g></g></g><g fill="#181818" fill-opacity="1"><g transform="translate(149.463909, 192.772766)"><g><path d="M 9.515625 0.3125 C 7.015625 0.3125 5.007812 -0.472656 3.5 -2.046875 C 1.988281 -3.617188 1.234375 -5.773438 1.234375 -8.515625 L 1.234375 -24.359375 C 1.234375 -27.773438 1.910156 -30.347656 3.265625 -32.078125 C 4.628906 -33.816406 6.769531 -34.6875 9.6875 -34.6875 C 12.21875 -34.6875 14.253906 -33.988281 15.796875 -32.59375 C 17.347656 -31.207031 18.125 -29.207031 18.125 -26.59375 L 18.125 -20.6875 L 11.28125 -20.6875 L 11.28125 -25.765625 C 11.28125 -26.742188 11.160156 -27.421875 10.921875 -27.796875 C 10.679688 -28.171875 10.269531 -28.359375 9.6875 -28.359375 C 9.070312 -28.359375 8.648438 -28.144531 8.421875 -27.71875 C 8.191406 -27.289062 8.078125 -26.664062 8.078125 -25.84375 L 8.078125 -8.59375 C 8.078125 -7.6875 8.207031 -7.023438 8.46875 -6.609375 C 8.738281 -6.203125 9.144531 -6 9.6875 -6 C 10.75 -6 11.28125 -6.863281 11.28125 -8.59375 L 11.28125 -14.796875 L 18.203125 -14.796875 L 18.203125 -8.3125 C 18.203125 -2.5625 15.304688 0.3125 9.515625 0.3125 Z M 9.515625 0.3125 "/></g></g></g><g fill="#181818" fill-opacity="1"><g transform="translate(169.422026, 192.772766)"><g><path d="M 4.484375 0 L 4.484375 -27.765625 L 0.40625 -27.765625 L 0.40625 -34.359375 L 15.4375 -34.359375 L 15.4375 -27.765625 L 11.359375 -27.765625 L 11.359375 0 Z M 4.484375 0 "/></g></g></g><path stroke-linecap="butt" transform="matrix(0.75, 0, 0, 0.75, 189.749992, 149.272769)" fill="none" stroke-linejoin="miter" d="M 2.031261 58.000896 L 2.031261 12.193601 L 11.197928 12.193601 L 11.197928 50.214437 L 20.635429 50.214437 L 20.635429 58.000896 Z M 24.104179 58.000896 L 24.104179 12.193601 L 32.958346 12.193601 L 32.958346 58.000896 Z M 48.843764 58.427979 C 44.687514 58.427979 41.687513 57.401937 39.838555 55.344646 C 37.989596 53.276937 37.062513 49.948812 37.062513 45.355062 L 37.062513 40.881103 L 46.07293 40.881103 L 46.07293 46.57902 C 46.07293 48.865478 46.802097 50.006103 48.26043 50.006103 C 49.078139 50.006103 49.645847 49.76652 49.963556 49.287353 C 50.286472 48.802978 50.447931 47.990478 50.447931 46.855062 C 50.447931 45.36027 50.270847 44.131103 49.911472 43.157145 C 49.557306 42.177978 49.104181 41.355061 48.546889 40.698811 C 48.000014 40.037353 47.015639 39.011311 45.593764 37.625894 L 41.645847 33.677977 C 38.588555 30.693602 37.062513 27.38631 37.062513 23.756102 C 37.062513 19.849852 37.963555 16.875893 39.76043 14.839435 C 41.557305 12.792559 44.177097 11.766518 47.619805 11.766518 C 51.744806 11.766518 54.713556 12.860268 56.526056 15.047768 C 58.343764 17.235268 59.250015 20.651935 59.250015 25.308185 L 49.911472 25.308185 L 49.859389 22.157143 C 49.859389 21.558185 49.692722 21.079018 49.354181 20.724852 C 49.015639 20.365477 48.546889 20.188393 47.94793 20.188393 C 47.234389 20.188393 46.703139 20.38631 46.343764 20.776935 C 45.989597 21.16756 45.812514 21.69881 45.812514 22.375893 C 45.812514 23.870685 46.661472 25.41756 48.364597 27.01131 L 53.703139 32.131102 C 54.942723 33.344644 55.973973 34.495686 56.786473 35.579019 C 57.614598 36.662353 58.270848 37.943603 58.765639 39.422769 C 59.260431 40.896728 59.510431 42.646728 59.510431 44.667561 C 59.510431 49.183187 58.687514 52.605062 57.036473 54.938395 C 55.385431 57.266521 52.656264 58.427979 48.843764 58.427979 Z M 67.838557 58.000896 L 67.838557 20.985268 L 62.395848 20.985268 L 62.395848 12.193601 L 82.447933 12.193601 L 82.447933 20.985268 L 77.005224 20.985268 L 77.005224 58.000896 Z M 85.911475 58.000896 L 85.911475 12.193601 L 94.765642 12.193601 L 94.765642 58.000896 Z M 99.781267 58.000896 L 99.781267 12.193601 L 109.223976 12.193601 L 113.427101 34.110269 L 113.427101 12.193601 L 122.281269 12.193601 L 122.281269 58.000896 L 113.322935 58.000896 L 108.739601 35.073811 L 108.739601 58.000896 Z M 137.114603 58.427979 C 133.807311 58.427979 131.338561 57.266521 129.718769 54.938395 C 128.104186 52.605062 127.296894 49.073812 127.296894 44.339436 L 127.296894 24.615477 C 127.296894 20.381102 128.234394 17.183185 130.119811 15.021726 C 132.005228 12.849851 134.812519 11.766518 138.546895 11.766518 C 141.567728 11.766518 143.90627 12.370684 145.572937 13.573809 C 147.25002 14.782143 148.411479 16.54256 149.052104 18.860268 C 149.692729 21.172768 150.015645 24.141518 150.015645 27.766519 L 141.057312 27.766519 L 141.057312 23.651935 C 141.057312 22.552977 140.90627 21.69881 140.604187 21.099852 C 140.296895 20.495685 139.755228 20.188393 138.973978 20.188393 C 137.229186 20.188393 136.359395 21.329018 136.359395 23.599852 L 136.359395 45.787353 C 136.359395 47.177978 136.536478 48.224853 136.890645 48.938395 C 137.244811 49.651937 137.869811 50.006103 138.765645 50.006103 C 139.651061 50.006103 140.270853 49.651937 140.630228 48.938395 C 140.984395 48.224853 141.161478 47.177978 141.161478 45.787353 L 141.161478 39.224853 L 138.713561 39.224853 L 138.713561 31.334227 L 149.911479 31.334227 L 149.911479 58.000896 L 146.223979 58.000896 L 144.677103 54.157145 C 143.046895 57.006104 140.526062 58.427979 137.114603 58.427979 Z M 137.114603 58.427979 " stroke="#181818" stroke-width="0.666666" stroke-opacity="1" stroke-miterlimit="4"/></svg>